<svg xmlns="http://www.w3.org/2000/svg" viewBox="0 0 900 600" preserveAspectRatio="xMidYMid slice" role="img" aria-label="Markets">
<rect width="900" height="600" fill="#f4ede2"/>
<line x1="60" y1="60" x2="60" y2="540" stroke="#d4cdbd" stroke-width="1"/>
<text x="80" y="100" font-family="'Source Serif 4','Source Serif Pro',Georgia,serif" font-size="36" fill="#0f0f10" font-weight="600">Markets</text>
<text x="80" y="128" font-family="ui-monospace,SFMono-Regular,Menlo,monospace" font-size="11" fill="#c0392b" letter-spacing="3" font-weight="700">WHERE TRADES HAPPEN</text>
<g transform="translate(80,210)">
<line x1="0" y1="260" x2="760" y2="260" stroke="#d4cdbd" stroke-width="1"/>
<polygon points="0,260 50,200 110,150 180,110 250,80 320,50 380,50" fill="#0f0f10" opacity="0.20"/>
<polyline points="0,260 50,200 110,150 180,110 250,80 320,50 380,50" fill="none" stroke="#0f0f10" stroke-width="3"/>
<polygon points="380,50 440,80 510,110 580,150 650,200 700,250 760,260" fill="#c0392b" opacity="0.25"/>
<polyline points="380,50 440,80 510,110 580,150 650,200 700,250 760,260" fill="none" stroke="#c0392b" stroke-width="3"/>
<line x1="380" y1="30" x2="380" y2="280" stroke="#5b5b63" stroke-width="1" stroke-dasharray="4 4"/>
<text x="380" y="20" font-family="ui-monospace,monospace" font-size="11" fill="#5b5b63" text-anchor="middle">MID</text>
</g>
<text x="840" y="570" font-family="ui-monospace,monospace" font-size="10" fill="#5b5b63" letter-spacing="2" text-anchor="end" opacity="0.7">POMEGRA WIKI</text></svg>