<svg xmlns="http://www.w3.org/2000/svg" viewBox="0 0 900 600" preserveAspectRatio="xMidYMid slice" role="img" aria-label="Real estate">
<rect width="900" height="600" fill="#f4ede2"/>
<line x1="60" y1="60" x2="60" y2="540" stroke="#d4cdbd" stroke-width="1"/>
<text x="80" y="100" font-family="'Source Serif 4','Source Serif Pro',Georgia,serif" font-size="36" fill="#0f0f10" font-weight="600">Real estate</text>
<text x="80" y="128" font-family="ui-monospace,SFMono-Regular,Menlo,monospace" font-size="11" fill="#c0392b" letter-spacing="3" font-weight="700">PROPERTY &amp; MORTGAGES</text>
<g transform="translate(80,200)">
<rect x="0" y="180" width="50" height="180" fill="#c0392b" opacity="1"/>
<rect x="10" y="188" width="6" height="6" fill="#f4ede2" opacity="0.42"/>
<rect x="25" y="188" width="6" height="6" fill="#f4ede2" opacity="0.42"/>
<rect x="10" y="218" width="6" height="6" fill="#f4ede2" opacity="0.42"/>
<rect x="25" y="218" width="6" height="6" fill="#f4ede2" opacity="0.42"/>
<rect x="10" y="248" width="6" height="6" fill="#f4ede2" opacity="0.42"/>
<rect x="25" y="248" width="6" height="6" fill="#f4ede2" opacity="0.42"/>
<rect x="10" y="278" width="6" height="6" fill="#f4ede2" opacity="0.42"/>
<rect x="25" y="278" width="6" height="6" fill="#f4ede2" opacity="0.42"/>
<rect x="55" y="120" width="50" height="240" fill="#0f0f10" opacity="0.85"/>
<rect x="65" y="128" width="6" height="6" fill="#f4ede2" opacity="0.42"/>
<rect x="80" y="128" width="6" height="6" fill="#f4ede2" opacity="0.42"/>
<rect x="65" y="158" width="6" height="6" fill="#f4ede2" opacity="0.42"/>
<rect x="80" y="158" width="6" height="6" fill="#f4ede2" opacity="0.42"/>
<rect x="65" y="188" width="6" height="6" fill="#f4ede2" opacity="0.42"/>
<rect x="80" y="188" width="6" height="6" fill="#f4ede2" opacity="0.42"/>
<rect x="65" y="218" width="6" height="6" fill="#f4ede2" opacity="0.42"/>
<rect x="80" y="218" width="6" height="6" fill="#f4ede2" opacity="0.42"/>
<rect x="65" y="248" width="6" height="6" fill="#f4ede2" opacity="0.42"/>
<rect x="80" y="248" width="6" height="6" fill="#f4ede2" opacity="0.42"/>
<rect x="110" y="160" width="50" height="200" fill="#0f0f10" opacity="0.85"/>
<rect x="120" y="168" width="6" height="6" fill="#f4ede2" opacity="0.42"/>
<rect x="135" y="168" width="6" height="6" fill="#f4ede2" opacity="0.42"/>
<rect x="120" y="198" width="6" height="6" fill="#f4ede2" opacity="0.42"/>
<rect x="135" y="198" width="6" height="6" fill="#f4ede2" opacity="0.42"/>
<rect x="120" y="228" width="6" height="6" fill="#f4ede2" opacity="0.42"/>
<rect x="135" y="228" width="6" height="6" fill="#f4ede2" opacity="0.42"/>
<rect x="120" y="258" width="6" height="6" fill="#f4ede2" opacity="0.42"/>
<rect x="135" y="258" width="6" height="6" fill="#f4ede2" opacity="0.42"/>
<rect x="165" y="70" width="50" height="290" fill="#0f0f10" opacity="0.85"/>
<rect x="175" y="78" width="6" height="6" fill="#f4ede2" opacity="0.42"/>
<rect x="190" y="78" width="6" height="6" fill="#f4ede2" opacity="0.42"/>
<rect x="175" y="108" width="6" height="6" fill="#f4ede2" opacity="0.42"/>
<rect x="190" y="108" width="6" height="6" fill="#f4ede2" opacity="0.42"/>
<rect x="175" y="138" width="6" height="6" fill="#f4ede2" opacity="0.42"/>
<rect x="190" y="138" width="6" height="6" fill="#f4ede2" opacity="0.42"/>
<rect x="175" y="168" width="6" height="6" fill="#f4ede2" opacity="0.42"/>
<rect x="190" y="168" width="6" height="6" fill="#f4ede2" opacity="0.42"/>
<rect x="175" y="198" width="6" height="6" fill="#f4ede2" opacity="0.42"/>
<rect x="190" y="198" width="6" height="6" fill="#f4ede2" opacity="0.42"/>
<rect x="175" y="228" width="6" height="6" fill="#f4ede2" opacity="0.42"/>
<rect x="190" y="228" width="6" height="6" fill="#f4ede2" opacity="0.42"/>
<rect x="175" y="258" width="6" height="6" fill="#f4ede2" opacity="0.42"/>
<rect x="190" y="258" width="6" height="6" fill="#f4ede2" opacity="0.42"/>
<rect x="220" y="140" width="50" height="220" fill="#c0392b" opacity="1"/>
<rect x="230" y="148" width="6" height="6" fill="#f4ede2" opacity="0.42"/>
<rect x="245" y="148" width="6" height="6" fill="#f4ede2" opacity="0.42"/>
<rect x="230" y="178" width="6" height="6" fill="#f4ede2" opacity="0.42"/>
<rect x="245" y="178" width="6" height="6" fill="#f4ede2" opacity="0.42"/>
<rect x="230" y="208" width="6" height="6" fill="#f4ede2" opacity="0.42"/>
<rect x="245" y="208" width="6" height="6" fill="#f4ede2" opacity="0.42"/>
<rect x="230" y="238" width="6" height="6" fill="#f4ede2" opacity="0.42"/>
<rect x="245" y="238" width="6" height="6" fill="#f4ede2" opacity="0.42"/>
<rect x="230" y="268" width="6" height="6" fill="#f4ede2" opacity="0.42"/>
<rect x="245" y="268" width="6" height="6" fill="#f4ede2" opacity="0.42"/>
<rect x="275" y="100" width="50" height="260" fill="#0f0f10" opacity="0.85"/>
<rect x="285" y="108" width="6" height="6" fill="#f4ede2" opacity="0.42"/>
<rect x="300" y="108" width="6" height="6" fill="#f4ede2" opacity="0.42"/>
<rect x="285" y="138" width="6" height="6" fill="#f4ede2" opacity="0.42"/>
<rect x="300" y="138" width="6" height="6" fill="#f4ede2" opacity="0.42"/>
<rect x="285" y="168" width="6" height="6" fill="#f4ede2" opacity="0.42"/>
<rect x="300" y="168" width="6" height="6" fill="#f4ede2" opacity="0.42"/>
<rect x="285" y="198" width="6" height="6" fill="#f4ede2" opacity="0.42"/>
<rect x="300" y="198" width="6" height="6" fill="#f4ede2" opacity="0.42"/>
<rect x="285" y="228" width="6" height="6" fill="#f4ede2" opacity="0.42"/>
<rect x="300" y="228" width="6" height="6" fill="#f4ede2" opacity="0.42"/>
<rect x="285" y="258" width="6" height="6" fill="#f4ede2" opacity="0.42"/>
<rect x="300" y="258" width="6" height="6" fill="#f4ede2" opacity="0.42"/>
<rect x="330" y="180" width="50" height="180" fill="#0f0f10" opacity="0.85"/>
<rect x="340" y="188" width="6" height="6" fill="#f4ede2" opacity="0.42"/>
<rect x="355" y="188" width="6" height="6" fill="#f4ede2" opacity="0.42"/>
<rect x="340" y="218" width="6" height="6" fill="#f4ede2" opacity="0.42"/>
<rect x="355" y="218" width="6" height="6" fill="#f4ede2" opacity="0.42"/>
<rect x="340" y="248" width="6" height="6" fill="#f4ede2" opacity="0.42"/>
<rect x="355" y="248" width="6" height="6" fill="#f4ede2" opacity="0.42"/>
<rect x="340" y="278" width="6" height="6" fill="#f4ede2" opacity="0.42"/>
<rect x="355" y="278" width="6" height="6" fill="#f4ede2" opacity="0.42"/>
<rect x="385" y="40" width="50" height="320" fill="#0f0f10" opacity="0.85"/>
<rect x="395" y="48" width="6" height="6" fill="#f4ede2" opacity="0.42"/>
<rect x="410" y="48" width="6" height="6" fill="#f4ede2" opacity="0.42"/>
<rect x="395" y="78" width="6" height="6" fill="#f4ede2" opacity="0.42"/>
<rect x="410" y="78" width="6" height="6" fill="#f4ede2" opacity="0.42"/>
<rect x="395" y="108" width="6" height="6" fill="#f4ede2" opacity="0.42"/>
<rect x="410" y="108" width="6" height="6" fill="#f4ede2" opacity="0.42"/>
<rect x="395" y="138" width="6" height="6" fill="#f4ede2" opacity="0.42"/>
<rect x="410" y="138" width="6" height="6" fill="#f4ede2" opacity="0.42"/>
<rect x="395" y="168" width="6" height="6" fill="#f4ede2" opacity="0.42"/>
<rect x="410" y="168" width="6" height="6" fill="#f4ede2" opacity="0.42"/>
<rect x="395" y="198" width="6" height="6" fill="#f4ede2" opacity="0.42"/>
<rect x="410" y="198" width="6" height="6" fill="#f4ede2" opacity="0.42"/>
<rect x="395" y="228" width="6" height="6" fill="#f4ede2" opacity="0.42"/>
<rect x="410" y="228" width="6" height="6" fill="#f4ede2" opacity="0.42"/>
<rect x="395" y="258" width="6" height="6" fill="#f4ede2" opacity="0.42"/>
<rect x="410" y="258" width="6" height="6" fill="#f4ede2" opacity="0.42"/>
<rect x="440" y="130" width="50" height="230" fill="#c0392b" opacity="1"/>
<rect x="450" y="138" width="6" height="6" fill="#f4ede2" opacity="0.42"/>
<rect x="465" y="138" width="6" height="6" fill="#f4ede2" opacity="0.42"/>
<rect x="450" y="168" width="6" height="6" fill="#f4ede2" opacity="0.42"/>
<rect x="465" y="168" width="6" height="6" fill="#f4ede2" opacity="0.42"/>
<rect x="450" y="198" width="6" height="6" fill="#f4ede2" opacity="0.42"/>
<rect x="465" y="198" width="6" height="6" fill="#f4ede2" opacity="0.42"/>
<rect x="450" y="228" width="6" height="6" fill="#f4ede2" opacity="0.42"/>
<rect x="465" y="228" width="6" height="6" fill="#f4ede2" opacity="0.42"/>
<rect x="450" y="258" width="6" height="6" fill="#f4ede2" opacity="0.42"/>
<rect x="465" y="258" width="6" height="6" fill="#f4ede2" opacity="0.42"/>
<rect x="495" y="160" width="50" height="200" fill="#0f0f10" opacity="0.85"/>
<rect x="505" y="168" width="6" height="6" fill="#f4ede2" opacity="0.42"/>
<rect x="520" y="168" width="6" height="6" fill="#f4ede2" opacity="0.42"/>
<rect x="505" y="198" width="6" height="6" fill="#f4ede2" opacity="0.42"/>
<rect x="520" y="198" width="6" height="6" fill="#f4ede2" opacity="0.42"/>
<rect x="505" y="228" width="6" height="6" fill="#f4ede2" opacity="0.42"/>
<rect x="520" y="228" width="6" height="6" fill="#f4ede2" opacity="0.42"/>
<rect x="505" y="258" width="6" height="6" fill="#f4ede2" opacity="0.42"/>
<rect x="520" y="258" width="6" height="6" fill="#f4ede2" opacity="0.42"/>
<rect x="550" y="80" width="50" height="280" fill="#0f0f10" opacity="0.85"/>
<rect x="560" y="88" width="6" height="6" fill="#f4ede2" opacity="0.42"/>
<rect x="575" y="88" width="6" height="6" fill="#f4ede2" opacity="0.42"/>
<rect x="560" y="118" width="6" height="6" fill="#f4ede2" opacity="0.42"/>
<rect x="575" y="118" width="6" height="6" fill="#f4ede2" opacity="0.42"/>
<rect x="560" y="148" width="6" height="6" fill="#f4ede2" opacity="0.42"/>
<rect x="575" y="148" width="6" height="6" fill="#f4ede2" opacity="0.42"/>
<rect x="560" y="178" width="6" height="6" fill="#f4ede2" opacity="0.42"/>
<rect x="575" y="178" width="6" height="6" fill="#f4ede2" opacity="0.42"/>
<rect x="560" y="208" width="6" height="6" fill="#f4ede2" opacity="0.42"/>
<rect x="575" y="208" width="6" height="6" fill="#f4ede2" opacity="0.42"/>
<rect x="560" y="238" width="6" height="6" fill="#f4ede2" opacity="0.42"/>
<rect x="575" y="238" width="6" height="6" fill="#f4ede2" opacity="0.42"/>
<rect x="560" y="268" width="6" height="6" fill="#f4ede2" opacity="0.42"/>
<rect x="575" y="268" width="6" height="6" fill="#f4ede2" opacity="0.42"/>
<rect x="605" y="150" width="50" height="210" fill="#0f0f10" opacity="0.85"/>
<rect x="615" y="158" width="6" height="6" fill="#f4ede2" opacity="0.42"/>
<rect x="630" y="158" width="6" height="6" fill="#f4ede2" opacity="0.42"/>
<rect x="615" y="188" width="6" height="6" fill="#f4ede2" opacity="0.42"/>
<rect x="630" y="188" width="6" height="6" fill="#f4ede2" opacity="0.42"/>
<rect x="615" y="218" width="6" height="6" fill="#f4ede2" opacity="0.42"/>
<rect x="630" y="218" width="6" height="6" fill="#f4ede2" opacity="0.42"/>
<rect x="615" y="248" width="6" height="6" fill="#f4ede2" opacity="0.42"/>
<rect x="630" y="248" width="6" height="6" fill="#f4ede2" opacity="0.42"/>
<rect x="615" y="278" width="6" height="6" fill="#f4ede2" opacity="0.42"/>
<rect x="630" y="278" width="6" height="6" fill="#f4ede2" opacity="0.42"/>
<rect x="660" y="110" width="50" height="250" fill="#c0392b" opacity="1"/>
<rect x="670" y="118" width="6" height="6" fill="#f4ede2" opacity="0.42"/>
<rect x="685" y="118" width="6" height="6" fill="#f4ede2" opacity="0.42"/>
<rect x="670" y="148" width="6" height="6" fill="#f4ede2" opacity="0.42"/>
<rect x="685" y="148" width="6" height="6" fill="#f4ede2" opacity="0.42"/>
<rect x="670" y="178" width="6" height="6" fill="#f4ede2" opacity="0.42"/>
<rect x="685" y="178" width="6" height="6" fill="#f4ede2" opacity="0.42"/>
<rect x="670" y="208" width="6" height="6" fill="#f4ede2" opacity="0.42"/>
<rect x="685" y="208" width="6" height="6" fill="#f4ede2" opacity="0.42"/>
<rect x="670" y="238" width="6" height="6" fill="#f4ede2" opacity="0.42"/>
<rect x="685" y="238" width="6" height="6" fill="#f4ede2" opacity="0.42"/>
<rect x="670" y="268" width="6" height="6" fill="#f4ede2" opacity="0.42"/>
<rect x="685" y="268" width="6" height="6" fill="#f4ede2" opacity="0.42"/>
<rect x="715" y="160" width="50" height="200" fill="#0f0f10" opacity="0.85"/>
<rect x="725" y="168" width="6" height="6" fill="#f4ede2" opacity="0.42"/>
<rect x="740" y="168" width="6" height="6" fill="#f4ede2" opacity="0.42"/>
<rect x="725" y="198" width="6" height="6" fill="#f4ede2" opacity="0.42"/>
<rect x="740" y="198" width="6" height="6" fill="#f4ede2" opacity="0.42"/>
<rect x="725" y="228" width="6" height="6" fill="#f4ede2" opacity="0.42"/>
<rect x="740" y="228" width="6" height="6" fill="#f4ede2" opacity="0.42"/>
<rect x="725" y="258" width="6" height="6" fill="#f4ede2" opacity="0.42"/>
<rect x="740" y="258" width="6" height="6" fill="#f4ede2" opacity="0.42"/>
<line x1="-10" y1="360" x2="780" y2="360" stroke="#0f0f10" stroke-width="2"/>
</g>
<text x="840" y="570" font-family="ui-monospace,monospace" font-size="10" fill="#5b5b63" letter-spacing="2" text-anchor="end" opacity="0.7">POMEGRA WIKI</text></svg>