<svg xmlns="http://www.w3.org/2000/svg" viewBox="0 0 900 600" preserveAspectRatio="xMidYMid slice" role="img" aria-label="Strategies">
<rect width="900" height="600" fill="#f4ede2"/>
<line x1="60" y1="60" x2="60" y2="540" stroke="#d4cdbd" stroke-width="1"/>
<text x="80" y="100" font-family="'Fraunces',Georgia,serif" font-style="italic" font-size="36" fill="#0f0f10" font-weight="600">Strategies</text>
<text x="80" y="128" font-family="ui-monospace,SFMono-Regular,Menlo,monospace" font-size="11" fill="#c0392b" letter-spacing="3" font-weight="700">HOW INVESTORS DECIDE</text>
<g transform="translate(130,210)" stroke="#5b5b63" stroke-width="2" fill="none">
<line x1="0" y1="160" x2="200" y2="160"/>
<line x1="200" y1="160" x2="350" y2="60"/>
<line x1="200" y1="160" x2="350" y2="260"/>
<line x1="350" y1="60" x2="520" y2="20"/>
<line x1="350" y1="60" x2="520" y2="100"/>
<line x1="350" y1="260" x2="520" y2="220"/>
<line x1="350" y1="260" x2="520" y2="300"/>
<circle cx="0" cy="160" r="11" fill="#c0392b" stroke="none"/>
<circle cx="200" cy="160" r="8" fill="#0f0f10" stroke="none"/>
<circle cx="350" cy="60" r="8" fill="#0f0f10" stroke="none"/>
<circle cx="350" cy="260" r="8" fill="#0f0f10" stroke="none"/>
<circle cx="520" cy="20" r="6" fill="#5b5b63" stroke="none"/>
<circle cx="520" cy="100" r="6" fill="#5b5b63" stroke="none"/>
<circle cx="520" cy="220" r="6" fill="#5b5b63" stroke="none"/>
<circle cx="520" cy="300" r="6" fill="#c0392b" stroke="none"/>
</g>
<text x="840" y="570" font-family="ui-monospace,monospace" font-size="10" fill="#5b5b63" letter-spacing="2" text-anchor="end" opacity="0.7">POMEGRA WIKI</text></svg>